<svg width="160" height="41" viewBox="0 0 160 41" fill="none" xmlns="http://www.w3.org/2000/svg">
<path d="M92.0321 9.81645C92.1858 9.81645 92.3104 9.69206 92.3104 9.53862C92.3104 9.38519 92.1858 9.2608 92.0321 9.2608C91.8784 9.2608 91.7538 9.38519 91.7538 9.53862C91.7538 9.69206 91.8784 9.81645 92.0321 9.81645Z" fill="#42B8B2"/>
<path d="M93.3223 9.81645C93.476 9.81645 93.6006 9.69206 93.6006 9.53862C93.6006 9.38519 93.476 9.2608 93.3223 9.2608C93.1686 9.2608 93.044 9.38519 93.044 9.53862C93.044 9.69206 93.1686 9.81645 93.3223 9.81645Z" fill="#42B8B2"/>
<path d="M97.5979 0.0083313H93.6512C92.6055 0.0083313 91.7453 0.867059 91.7453 1.91942V9.57219C91.7453 9.74057 91.8718 9.86685 92.0236 9.86685H93.3139C93.4657 9.86685 93.5921 9.73215 93.5921 9.57219V1.97835C93.5921 1.87733 93.6596 1.80156 93.7524 1.80156H97.5979C97.7497 1.80156 97.8762 1.66685 97.8762 1.50689V0.302993C97.8762 0.134615 97.7497 0.0083313 97.5979 0.0083313Z" fill="#42B8B2"/>
<path d="M77.7883 0.0083313C77.6955 0.0167502 77.6196 0.100939 77.6196 0.193546C77.6196 0.227222 77.6281 0.260898 77.6449 0.294574L80.6134 3.84735C80.6134 3.84735 80.6893 3.89786 80.7399 3.89786C80.7905 3.89786 80.8327 3.88102 80.8664 3.84735L81.8953 2.68554C81.8953 2.68554 81.9206 2.62661 81.9206 2.58451C81.9206 2.54242 81.9122 2.51716 81.8953 2.4919L79.9809 0.201965C79.8797 0.0841009 79.7279 0.0083313 79.5761 0.0083313H77.7883Z" fill="#42B8B2"/>
<path d="M90.4297 1.87751C90.5899 1.87751 90.7248 1.74281 90.7248 1.58285V0.311599C90.7248 0.15164 90.5899 0.0169373 90.4297 0.0169373H85.9516C85.7914 0.0169373 85.648 0.084288 85.5468 0.210571L77.6955 9.59764C77.6955 9.59764 77.6617 9.66499 77.6617 9.69866C77.6617 9.79969 77.7461 9.88388 77.8473 9.88388H79.5508C79.711 9.88388 79.8544 9.81653 79.9556 9.69024L82.6036 6.52474C82.6374 6.48265 82.6964 6.45739 82.747 6.45739C82.7976 6.45739 82.8566 6.48265 82.8904 6.52474L85.5384 9.69024C85.6396 9.80811 85.7914 9.88388 85.9432 9.88388H87.6636C87.7563 9.87546 87.8322 9.79127 87.8322 9.69866C87.8322 9.66499 87.8238 9.63131 87.8069 9.59764L84.0204 5.07669C83.9614 5.00934 83.9614 4.89989 84.0204 4.83254L86.3311 2.1385C86.4492 1.98696 86.6263 1.89435 86.8287 1.88593H90.4128L90.4297 1.87751Z" fill="#42B8B2"/>
<path d="M75.7222 4.0578H66.6649C66.5624 4.0578 66.4794 4.14073 66.4794 4.24302V5.68265C66.4794 5.78494 66.5624 5.86786 66.6649 5.86786H75.7222C75.8247 5.86786 75.9077 5.78494 75.9077 5.68265V4.24302C75.9077 4.14073 75.8247 4.0578 75.7222 4.0578Z" fill="#42B8B2"/>
<path d="M75.7138 8.04831H66.6059C66.5034 8.04831 66.4203 8.13123 66.4203 8.23353V9.67316C66.4203 9.77545 66.5034 9.85837 66.6059 9.85837H75.7138C75.8162 9.85837 75.8993 9.77545 75.8993 9.67316V8.23353C75.8993 8.13123 75.8162 8.04831 75.7138 8.04831Z" fill="#42B8B2"/>
<path d="M61.8832 7.04661C61.8832 7.4844 61.529 7.84641 61.082 7.84641C60.7869 7.84641 60.5929 7.68645 60.458 7.4423L60.4074 7.34127L57.6244 1.56591C57.1775 0.673512 56.6377 0.0168382 55.7016 0.0168382H55.1872C54.0909 0.0168382 53.197 0.98501 53.197 2.18049V9.54702C53.197 9.70698 53.3235 9.84168 53.4753 9.84168H54.7824C54.9342 9.84168 55.0607 9.70698 55.0607 9.54702V2.38255C55.0607 2.33203 55.0691 2.2731 55.086 2.22259C55.1535 2.05421 55.3137 1.92793 55.5077 1.92793C55.6848 1.92793 55.8366 2.02895 55.9125 2.18049L58.8304 8.25051C59.2605 9.15134 60.0785 9.73224 60.9977 9.82485C61.1326 9.8501 61.2676 9.85852 61.4025 9.85852C61.5121 9.85852 61.6218 9.85852 61.7314 9.83327C62.8446 9.68173 63.7217 8.73881 63.7385 7.60226V1.80164H75.7222C75.8234 1.80164 75.9077 1.71745 75.9077 1.61643V0.185217C75.9077 0.0841899 75.8234 0 75.7222 0H62.1531C62.0013 0 61.8748 0.134703 61.8748 0.294662V7.02977L61.8832 7.04661Z" fill="#42B8B2"/>
<path d="M147.329 20.138V20.8283C147.329 23.3624 145.271 25.4166 142.733 25.4166H141.594C139.056 25.4166 136.998 23.3624 136.998 20.8283V20.138C136.998 17.6039 139.056 15.5497 141.594 15.5497H142.733C145.271 15.5497 147.329 17.6039 147.329 20.138ZM145.33 20.4411C145.33 18.7573 144.04 17.385 142.438 17.385H141.881C140.287 17.385 138.988 18.7489 138.988 20.4411V20.5926C138.988 22.2764 140.279 23.6487 141.881 23.6487H142.438C144.032 23.6487 145.33 22.2764 145.33 20.5926V20.4411Z" fill="#42B8B2"/>
<path d="M129.046 15.7938V17.1829C129.046 17.3177 128.944 17.4271 128.81 17.4271H125.968C125.849 17.4271 125.748 17.3177 125.748 17.1829V15.7938C125.748 15.6591 125.849 15.5497 125.968 15.5497H128.81C128.936 15.5497 129.046 15.6591 129.046 15.7854V15.7938ZM136.096 15.7938V17.1829C136.096 17.3177 135.995 17.4271 135.877 17.4271H132.25C132.132 17.4271 132.031 17.5365 132.031 17.6712V25.1893C132.031 25.324 131.93 25.4335 131.812 25.4335H130.37C130.252 25.4335 130.15 25.324 130.15 25.1893V17.4355C130.15 16.4 130.977 15.5665 131.989 15.5665H135.868C135.986 15.5665 136.087 15.676 136.087 15.8107L136.096 15.7938Z" fill="#42B8B2"/>
<path d="M75.6547 19.5319H66.6143C66.5118 19.5319 66.4288 19.6148 66.4288 19.7171V21.2241C66.4288 21.3264 66.5118 21.4093 66.6143 21.4093H75.6547C75.7572 21.4093 75.8403 21.3264 75.8403 21.2241V19.7171C75.8403 19.6148 75.7572 19.5319 75.6547 19.5319Z" fill="#42B8B2"/>
<path d="M75.6547 23.5224H66.6143C66.5118 23.5224 66.4288 23.6054 66.4288 23.7076V25.223C66.4288 25.3253 66.5118 25.4083 66.6143 25.4083H75.6547C75.7572 25.4083 75.8403 25.3253 75.8403 25.223V23.7076C75.8403 23.6054 75.7572 23.5224 75.6547 23.5224Z" fill="#42B8B2"/>
<path d="M102.574 15.5497C102.405 15.5497 102.27 15.676 102.27 15.8022V25.122C102.27 25.1725 102.27 25.1809 102.27 25.1977C102.27 25.3156 102.371 25.4082 102.481 25.4082H103.847C103.965 25.4082 104.066 25.3072 104.066 25.1725V23.0846C104.066 22.9499 104.167 22.8404 104.286 22.8404L107.65 22.8573C107.785 22.8741 107.912 22.9246 108.013 23.0341L110.037 25.1977C110.172 25.3409 110.349 25.4166 110.526 25.4166H112.128C112.263 25.3998 112.365 25.2988 112.365 25.1641C112.365 25.0967 112.339 25.0378 112.297 24.9957L110.467 22.9415C110.425 22.891 110.45 22.8236 110.501 22.7983C112.272 22.4279 112.82 20.7441 112.82 19.3045C112.82 17.1324 111.572 15.5834 110.155 15.5834L102.582 15.5665L102.574 15.5497ZM109.885 21.022H104.37C104.21 21.022 104.075 20.8957 104.075 20.7273V17.646V17.6292C104.075 17.4776 104.201 17.3682 104.345 17.3597H109.953C110.661 17.3597 110.998 18.1427 110.998 19.2877C110.998 19.8265 110.813 21.0135 109.877 21.0135L109.885 21.022Z" fill="#42B8B2"/>
<path d="M100.238 19.5908H91.113C91.0105 19.5908 90.9275 19.6737 90.9275 19.776V21.2325C90.9275 21.3348 91.0105 21.4177 91.113 21.4177H100.238C100.34 21.4177 100.423 21.3348 100.423 21.2325V19.776C100.423 19.6737 100.34 19.5908 100.238 19.5908Z" fill="#42B8B2"/>
<path d="M100.238 23.5898H91.1129C91.0105 23.5898 90.9274 23.6727 90.9274 23.775V25.2146C90.9274 25.3169 91.0105 25.3998 91.1129 25.3998H100.238C100.34 25.3998 100.423 25.3169 100.423 25.2146V23.775C100.423 23.6727 100.34 23.5898 100.238 23.5898Z" fill="#42B8B2"/>
<path d="M86.3566 22.5963C86.3566 23.0341 86.0024 23.3961 85.5554 23.3961C85.2602 23.3961 85.0663 23.2361 84.9313 22.992L84.8807 22.891L82.0978 17.1156C81.6508 16.2232 81.1111 15.5665 80.175 15.5665H79.6606C78.5642 15.5665 77.6703 16.5347 77.6703 17.7302V25.0967C77.6703 25.2567 77.7968 25.3914 77.9486 25.3914H79.2558C79.4076 25.3914 79.5341 25.2567 79.5341 25.0967V17.9322C79.5341 17.8817 79.5425 17.8228 79.5594 17.7723C79.6268 17.6039 79.7871 17.4776 79.981 17.4776C80.1581 17.4776 80.3099 17.5786 80.3858 17.7302L83.3037 23.8002C83.7338 24.701 84.5518 25.2819 85.4711 25.3745C85.606 25.3998 85.7409 25.4082 85.8759 25.4082C85.9855 25.4082 86.0951 25.4082 86.2048 25.3829C87.318 25.2314 88.195 24.2885 88.2119 23.1519V17.3513H100.255C100.356 17.3513 100.44 17.2671 100.44 17.1661V15.7349C100.44 15.6339 100.356 15.5497 100.255 15.5497H86.6349C86.4831 15.5497 86.3566 15.6844 86.3566 15.8443V22.5795V22.5963Z" fill="#42B8B2"/>
<path d="M58.8304 17.36C58.881 17.36 58.9232 17.3431 58.9653 17.3263C58.9232 17.3516 58.881 17.36 58.8304 17.36Z" fill="#42B8B2"/>
<path d="M55.6932 16.156C56.2836 15.8445 56.9498 15.6508 57.6666 15.6172C56.9582 15.6508 56.292 15.836 55.6932 16.156Z" fill="#42B8B2"/>
<path d="M75.6547 15.5667H58.8979C58.8979 15.5667 58.8473 15.5667 58.822 15.5667H57.869C55.2969 15.5667 53.197 17.6293 53.197 20.1718V20.8538C53.197 23.3879 55.2884 25.4589 57.869 25.4589H59.0075C62.3555 25.4589 63.6795 22.9838 63.6795 20.4749C63.6795 20.315 63.6795 19.995 63.6795 19.8351C63.6795 19.7004 63.5615 19.5825 63.4265 19.5825H58.8726C58.7798 19.5909 58.6955 19.6499 58.6533 19.7341C58.6449 19.7593 58.6364 19.793 58.628 19.8267V19.8435C58.628 19.8435 58.628 19.8772 58.628 19.894V21.0474C58.628 21.0474 58.628 21.0895 58.628 21.1063C58.628 21.1569 58.6364 21.1905 58.6533 21.2326C58.6955 21.3084 58.7714 21.3673 58.8557 21.3757H61.6471C61.5459 22.5797 60.4665 23.8677 58.7376 23.8677H58.122C56.4101 23.8677 55.0186 22.4113 55.0186 20.618V20.4581C55.0186 18.7827 56.2667 17.5031 57.9533 17.4189H75.6547C75.7559 17.4189 75.8403 17.3347 75.8403 17.2337V15.7519C75.8403 15.6509 75.7559 15.5667 75.6547 15.5667Z" fill="#42B8B2"/>
<path d="M127.317 24.8274C126.49 23.4046 122.544 16.4422 122.544 16.4422C121.86 15.2972 119.794 15.2046 119.002 16.4422L114.296 24.7685C114.152 25.0463 114.279 25.3662 114.574 25.3831H115.746C116.126 25.3831 116.21 25.2147 116.345 24.9958C116.345 24.9958 120.115 18.3028 120.393 17.8145C120.469 17.6714 120.604 17.4272 120.781 17.4272C120.958 17.4272 121.076 17.6545 121.169 17.8145C121.447 18.3028 125.225 25.0042 125.225 25.0042C125.352 25.2147 125.52 25.3999 125.816 25.3999L126.988 25.3831C127.258 25.3831 127.443 25.0547 127.308 24.819L127.317 24.8274Z" fill="#42B8B2"/>
<path d="M159.768 15.8191C159.768 15.676 159.641 15.5581 159.498 15.5497H158.182C158.031 15.5497 157.904 15.6844 157.904 15.8443V22.5795C157.904 23.0172 157.55 23.3793 157.111 23.3793C156.816 23.3793 156.622 23.2193 156.487 22.9751L156.437 22.8741L153.654 17.0988C153.207 16.2064 152.667 15.5497 151.731 15.5497H151.217C150.12 15.5497 149.226 16.5179 149.226 17.7133V25.0799C149.226 25.2398 149.353 25.3745 149.505 25.3745H150.812C150.964 25.3745 151.09 25.2398 151.09 25.0799V17.9154C151.09 17.8649 151.099 17.8059 151.115 17.7554C151.183 17.5871 151.343 17.4608 151.537 17.4608C151.714 17.4608 151.866 17.5618 151.942 17.7133L154.86 23.7834C155.29 24.6842 156.108 25.2651 157.027 25.3577C157.162 25.3829 157.297 25.3914 157.432 25.3914C157.542 25.3914 157.651 25.3914 157.761 25.3661C158.874 25.2146 159.751 24.2717 159.768 23.1351V15.8107V15.8191Z" fill="#42B8B2"/>
<path d="M122.729 35.6456V36.336C122.729 38.8701 120.671 40.9243 118.133 40.9243H116.994C114.456 40.9243 112.398 38.8701 112.398 36.336V35.6456C112.398 33.1115 114.456 31.0573 116.994 31.0573H118.133C120.671 31.0573 122.729 33.1115 122.729 35.6456ZM120.73 35.9487C120.73 34.2649 119.44 32.8927 117.838 32.8927H117.281C115.687 32.8927 114.389 34.2565 114.389 35.9487V36.1003C114.389 37.784 115.679 39.1563 117.281 39.1563H117.838C119.432 39.1563 120.73 37.784 120.73 36.1003V35.9487Z" fill="#42B8B2"/>
<path d="M71.1176 31.0993H70.2153C70.2827 31.0993 70.3587 31.0993 70.4261 31.0993H70.1816C70.1816 31.0993 70.1563 31.0993 70.1394 31.0993L55.7101 31.1162C54.327 31.1162 53.197 32.3369 53.197 33.8523V34.0712C53.197 35.5782 54.327 36.8073 55.7101 36.8073H60.905C61.6134 36.8073 61.782 37.5735 61.7989 37.8008C61.8158 38.0449 61.8411 38.9289 60.905 38.9289H53.4247C53.2982 38.9289 53.197 39.0384 53.197 39.1815V40.6885C53.197 40.8232 53.2898 40.9242 53.4163 40.9242H61.3098C61.9676 40.9242 62.5242 40.6548 62.9964 40.116C63.4603 39.5772 63.6964 38.8195 63.6964 38.0618V37.6745C63.6964 36.9841 63.4687 34.9131 61.0905 34.9131H56.1486C55.5499 34.9131 55.0692 34.6269 55.0692 33.9786C55.0692 33.3303 55.5499 33.0104 56.1486 33.0104H66.2601C65.7035 33.7681 65.3746 34.7026 65.3746 35.7213V36.4117C65.3746 38.9457 67.4323 41 69.9707 41H71.1092C73.6476 41 75.7053 38.9457 75.7053 36.4117V35.7213C75.7053 33.1872 73.6476 31.133 71.1092 31.133L71.1176 31.0993ZM73.7151 36.1423C73.7151 37.826 72.4164 39.1983 70.8225 39.1983H70.2659C68.672 39.1983 67.3733 37.826 67.3733 36.1423V35.9907C67.3733 34.3069 68.6636 32.9347 70.2659 32.9347H70.8225C72.4164 32.9347 73.7151 34.2985 73.7151 35.9907V36.1423Z" fill="#42B8B2"/>
<path d="M110.307 31.1079H108.84C108.721 31.1079 108.629 31.2089 108.629 31.3352V40.6717C108.629 40.798 108.721 40.8991 108.84 40.8991H110.307C110.425 40.8991 110.518 40.798 110.518 40.6717V31.3352C110.518 31.2089 110.425 31.1079 110.307 31.1079Z" fill="#42B8B2"/>
<path d="M86.0782 40.4529L84.8301 39.1227C84.7626 39.0637 84.6783 39.0216 84.5855 39.0216H80.7399C80.0906 39.0216 79.5677 38.5333 79.5677 37.8262V31.352C79.5677 31.2173 79.4665 31.1163 79.3485 31.1163H77.8052C77.6871 31.1163 77.5859 31.2257 77.5859 31.352V37.8262C77.5859 39.35 78.716 40.9075 80.1159 40.9075H86.0276C86.1372 40.9075 86.23 40.8149 86.23 40.697C86.23 40.6381 86.1035 40.4865 86.0698 40.4529H86.0782Z" fill="#42B8B2"/>
<path d="M106.31 31.091H102.363C101.317 31.091 100.457 31.9498 100.457 33.0021V40.6044C100.457 40.7728 100.583 40.899 100.735 40.899H102.025C102.177 40.899 102.304 40.7643 102.304 40.6044V33.0695C102.304 32.9684 102.371 32.8927 102.464 32.8927H106.31C106.461 32.8927 106.588 32.758 106.588 32.598V31.3941C106.588 31.2257 106.461 31.0995 106.31 31.0995V31.091Z" fill="#42B8B2"/>
<path d="M150.753 31.0994H139.57C138.187 31.1079 137.057 32.3539 137.057 33.8777V33.9787C137.057 35.511 138.187 36.7485 139.57 36.7485H144.613C145.322 36.7485 145.49 37.6241 145.507 37.8598C145.524 38.104 145.55 39.1142 144.613 39.1142H135.101C135.134 38.9711 135.151 38.828 135.151 38.6764V31.352C135.151 31.2089 135.033 31.091 134.89 31.0826H133.574C133.423 31.0826 133.296 31.2173 133.296 31.3773V38.1124C133.296 38.5502 132.942 38.9122 132.503 38.9122C132.208 38.9122 132.014 38.7522 131.879 38.5081L131.829 38.407L129.046 32.6317C128.599 31.7393 128.059 31.0826 127.123 31.0826H126.608C125.512 31.0826 124.618 32.0508 124.618 33.2463V40.6128C124.618 40.7728 124.745 40.9075 124.896 40.9075H126.204C126.355 40.9075 126.482 40.7728 126.482 40.6128V33.4483C126.482 33.3978 126.49 33.3389 126.507 33.2884C126.575 33.12 126.735 32.9937 126.929 32.9937C127.106 32.9937 127.258 33.0947 127.334 33.2463L130.252 39.3163C130.682 40.2171 131.5 40.798 132.419 40.8906C132.554 40.9159 132.689 40.9243 132.824 40.9243C132.908 40.9243 132.984 40.9243 133.068 40.9075H145.027C145.684 40.9075 146.241 40.6381 146.713 40.0908C147.177 39.5436 147.413 38.8869 147.413 38.1124V37.7251C147.413 37.0263 147.186 34.93 144.807 34.93H140.026C139.427 34.93 138.946 34.6354 138.946 33.9787C138.946 33.322 139.427 32.96 140.026 32.96H150.753C150.896 32.96 151.006 32.8674 151.006 32.7159V31.3773C151.006 31.2173 150.896 31.091 150.753 31.091V31.0994Z" fill="#42B8B2"/>
<path d="M99.6895 31.3267C99.6895 31.2172 99.5967 31.1246 99.4871 31.1246H94.2331C94.1151 31.1246 94.0139 31.2341 94.0139 31.3604V35.7382C94.0139 37.5482 93.4151 39.0216 91.155 39.0216H90.5562C88.3214 39.0216 87.6636 37.5651 87.6552 35.7634V31.3604C87.6552 31.2257 87.554 31.1246 87.4359 31.1246H85.9939C85.8758 31.1246 85.7746 31.2341 85.7746 31.3604V36.4033C85.7746 38.8953 87.7986 40.9242 90.3032 40.9242H91.4249C93.9211 40.9242 95.9535 38.9037 95.9535 36.4033V32.9936H99.4955C99.6051 32.9936 99.6979 32.901 99.6979 32.7916V31.3267H99.6895Z" fill="#42B8B2"/>
<path d="M41.112 22.7056H39.3073C39.1555 22.7056 39.0122 22.7646 38.9025 22.874C38.7929 22.9835 38.7339 23.1266 38.7339 23.2781V33.3639C38.7339 35.7297 36.8026 37.6576 34.4329 37.6576H23.495C23.3432 37.6576 23.1998 37.7165 23.0902 37.826C22.9806 37.9354 22.9215 38.0785 22.9215 38.2301V40.0317C22.9215 40.3432 23.1745 40.5958 23.4866 40.5958H34.4245C38.4134 40.5958 41.6686 37.3545 41.6686 33.3639V23.2781C41.6686 22.9666 41.4156 22.714 41.1036 22.714L41.112 22.7056Z" fill="#42B8B2"/>
<path d="M18.5533 2.76127V0.959631C18.5533 0.808091 18.4942 0.664968 18.3846 0.555523C18.275 0.446077 18.1316 0.387146 17.9798 0.387146H7.25271C3.26378 0.387146 0.00854492 3.62842 0.00854492 7.61897V17.688C0.00854492 17.9995 0.261542 18.252 0.573573 18.252H2.37829C2.53009 18.252 2.67345 18.1931 2.78308 18.0837C2.89272 17.9742 2.95175 17.8311 2.95175 17.6796V7.61055C2.95175 5.24485 4.88296 3.31692 7.25271 3.31692H17.9798C18.2918 3.31692 18.5448 3.06435 18.5448 2.75285L18.5533 2.76127Z" fill="#42B8B2"/>
<path d="M41.0952 11.4243H39.282C38.97 11.4243 38.717 11.6769 38.717 11.9884V13.7984C38.717 14.11 38.97 14.3625 39.282 14.3625H41.0952C41.4072 14.3625 41.6602 14.11 41.6602 13.7984V11.9884C41.6602 11.6769 41.4072 11.4243 41.0952 11.4243Z" fill="#42B8B2"/>
<path d="M2.37818 26.6372H0.565028C0.252972 26.6372 0 26.8898 0 27.2013V29.0114C0 29.3229 0.252972 29.5754 0.565028 29.5754H2.37818C2.69023 29.5754 2.9432 29.3229 2.9432 29.0114V27.2013C2.9432 26.8898 2.69023 26.6372 2.37818 26.6372Z" fill="#42B8B2"/>
<path d="M29.1959 28.0264C30.0645 27.0161 30.5115 25.7869 30.5115 24.3642V24.0947C30.5115 21.5859 29.2296 18.9087 25.6202 18.9087H16.6978C15.4244 18.8919 14.404 17.8648 14.404 16.6188C14.404 15.5159 15.1883 14.573 16.2677 14.3709H29.938C30.2501 14.3625 30.5031 14.1099 30.5031 13.7984V11.9968C30.5199 11.8453 30.4609 11.7021 30.3513 11.5927C30.2416 11.4832 30.0983 11.4243 29.9465 11.4243H15.8882C13.198 11.4243 11.1656 13.5206 11.1656 16.2989V16.9639C11.1656 18.3362 11.6547 19.6243 12.5487 20.5925C13.4426 21.5607 14.6233 22.0995 15.8882 22.0995H25.3335C26.2611 22.1837 27.0623 22.874 27.3069 23.7917V23.8253C27.3575 24.0442 27.3659 24.2042 27.3659 24.2042C27.3828 24.3726 27.3659 24.5999 27.3406 24.8104V24.844C27.1382 25.7785 26.3623 26.5026 25.4009 26.6373H11.7728C11.4608 26.6373 11.2078 26.8982 11.2078 27.2097V28.9945C11.2078 29.306 11.4608 29.5586 11.7728 29.5586H26.025C27.2563 29.5586 28.3188 29.0451 29.1959 28.0348V28.0264Z" fill="#42B8B2"/>
</svg>
