<svg width="10" height="18" viewBox="0 0 10 18" fill="none" xmlns="http://www.w3.org/2000/svg">
<path d="M0.30079 16.4824C0.219641 16.5682 0.156201 16.6693 0.114092 16.7796C0.0719824 16.89 0.0520287 17.0076 0.0553694 17.1257C0.0587101 17.2438 0.0852804 17.3601 0.133563 17.468C0.181846 17.5758 0.250895 17.6731 0.336768 17.7542C0.422642 17.8354 0.523658 17.8988 0.634049 17.9409C0.74444 17.983 0.862043 18.003 0.980146 17.9996C1.09825 17.9963 1.21454 17.9697 1.32237 17.9214C1.43021 17.8732 1.52747 17.8041 1.60862 17.7182L9.25414 9.62299C9.41203 9.45599 9.5 9.23488 9.5 9.00506C9.5 8.77523 9.41203 8.55412 9.25414 8.38712L1.60862 0.29097C1.52801 0.203217 1.43076 0.132355 1.32253 0.0825024C1.2143 0.03265 1.09724 0.00479889 0.978159 0.00056839C0.859074 -0.00366211 0.740335 0.0158119 0.628839 0.0578575C0.517344 0.0999031 0.415314 0.163683 0.328676 0.245495C0.242039 0.327307 0.172519 0.425516 0.124158 0.534422C0.0757961 0.643328 0.0495567 0.760757 0.0469627 0.879889C0.0443678 0.999022 0.0654707 1.11748 0.109045 1.22839C0.152619 1.3393 0.217796 1.44044 0.30079 1.52595L7.36345 9.00506L0.30079 16.4824Z" fill="white"/>
</svg>
