<svg width="10" height="18" viewBox="0 0 10 18" fill="none" xmlns="http://www.w3.org/2000/svg">
<path d="M9.69921 1.51763C9.78036 1.43176 9.8438 1.33074 9.88591 1.22035C9.92802 1.10996 9.94797 0.992358 9.94463 0.874255C9.94129 0.756153 9.91472 0.639865 9.86644 0.532031C9.81815 0.424197 9.74911 0.326929 9.66323 0.24578C9.57736 0.164631 9.47634 0.101191 9.36595 0.059082C9.25556 0.0169728 9.13796 -0.00298116 9.01985 0.000359791C8.90175 0.00370074 8.78546 0.030271 8.67763 0.0785535C8.56979 0.126836 8.47253 0.195885 8.39138 0.281759L0.745864 8.37701C0.587974 8.54401 0.5 8.76512 0.5 8.99494C0.5 9.22477 0.587974 9.44588 0.745864 9.61288L8.39138 17.709C8.47199 17.7968 8.56924 17.8676 8.67747 17.9175C8.7857 17.9674 8.90276 17.9952 9.02184 17.9994C9.14093 18.0037 9.25966 17.9842 9.37116 17.9421C9.48266 17.9001 9.58469 17.8363 9.67132 17.7545C9.75796 17.6727 9.82748 17.5745 9.87584 17.4656C9.9242 17.3567 9.95044 17.2392 9.95304 17.1201C9.95563 17.001 9.93453 16.8825 9.89095 16.7716C9.84738 16.6607 9.7822 16.5596 9.69921 16.4741L2.63655 8.99494L9.69921 1.51763Z" fill="white"/>
</svg>
